<svg aria-hidden="true" style="position: absolute; width: 0; height: 0; overflow: hidden;" version="1.1" xmlns="http://www.w3.org/2000/svg" xmlns:xlink="http://www.w3.org/1999/xlink">
<defs>
<symbol id="icon-cup" viewBox="0 0 35 32">
<path fill="#fff" style="fill: var(--color1, #fff)" d="M23.881 8.773c-0.295 0-0.551-0.108-0.767-0.324s-0.324-0.472-0.324-0.767c0-0.58 0.108-1.136 0.324-1.67s0.534-1.006 0.955-1.415l1.347-1.364c0.432-0.432 0.648-0.949 0.648-1.551 0-0.295 0.108-0.551 0.324-0.767s0.472-0.324 0.767-0.324c0.296 0 0.551 0.108 0.767 0.324s0.324 0.472 0.324 0.767c0 0.58-0.108 1.136-0.324 1.67s-0.534 1.006-0.955 1.415l-1.347 1.364c-0.432 0.432-0.648 0.949-0.648 1.551 0 0.295-0.108 0.551-0.324 0.767s-0.472 0.324-0.767 0.324zM17.335 8.773c-0.295 0-0.551-0.108-0.767-0.324s-0.324-0.472-0.324-0.767c0-0.58 0.108-1.136 0.324-1.67s0.534-1.006 0.955-1.415l1.347-1.364c0.432-0.432 0.648-0.949 0.648-1.551 0-0.295 0.108-0.551 0.324-0.767s0.472-0.324 0.767-0.324c0.296 0 0.551 0.108 0.767 0.324s0.324 0.472 0.324 0.767c0 0.58-0.108 1.136-0.324 1.67s-0.534 1.006-0.955 1.415l-1.347 1.364c-0.432 0.432-0.648 0.949-0.648 1.551 0 0.295-0.108 0.551-0.324 0.767s-0.472 0.324-0.767 0.324zM31.517 11.773c0.455 0 0.881 0.085 1.278 0.256s0.744 0.403 1.040 0.699c0.295 0.295 0.528 0.642 0.699 1.040s0.256 0.824 0.256 1.278v6.545c0 0.455-0.085 0.881-0.256 1.278s-0.403 0.744-0.699 1.040c-0.295 0.295-0.642 0.528-1.040 0.699s-0.824 0.256-1.278 0.256h-0.972c-0.023 0.080-0.040 0.153-0.051 0.222s-0.034 0.136-0.068 0.204v0.665c0 0.75-0.142 1.455-0.426 2.114s-0.676 1.239-1.176 1.739-1.080 0.892-1.739 1.176c-0.659 0.284-1.364 0.426-2.114 0.426h-6.545c-0.886 0-1.704-0.199-2.455-0.597s-1.375-0.926-1.875-1.585h-8.523c-0.75 0-1.455-0.142-2.114-0.426s-1.239-0.67-1.739-1.159-0.892-1.068-1.176-1.739c-0.284-0.67-0.426-1.381-0.426-2.131v-1.091h4.364c0-0.898 0.17-1.744 0.511-2.54s0.813-1.489 1.415-2.080 1.296-1.062 2.080-1.415c0.784-0.352 1.631-0.523 2.54-0.511 0.341 0 0.67 0.028 0.989 0.085s0.636 0.136 0.955 0.239v-6.869h17.455v2.182h1.091zM11.028 18.318c-0.602 0-1.165 0.114-1.688 0.341s-0.989 0.54-1.398 0.938-0.722 0.858-0.938 1.381c-0.216 0.523-0.33 1.091-0.341 1.704h6.307v-3.886c-0.295-0.148-0.602-0.261-0.92-0.341s-0.659-0.125-1.023-0.136zM5.574 27.045h7.517c-0.080-0.33-0.119-0.693-0.119-1.091v-1.091h-10.483c0.114 0.318 0.273 0.608 0.477 0.869s0.438 0.494 0.699 0.699c0.261 0.204 0.557 0.352 0.886 0.443s0.67 0.148 1.023 0.17zM13.466 28.188v0.017l0.017 0.034v-0.017l-0.017-0.034zM28.244 25.955v-14.182h-13.091v14.182c0 0.455 0.085 0.881 0.256 1.278s0.403 0.744 0.699 1.040c0.296 0.295 0.642 0.528 1.040 0.699s0.824 0.256 1.278 0.256h6.545c0.455 0 0.881-0.085 1.278-0.256s0.744-0.403 1.040-0.699c0.296-0.295 0.528-0.642 0.699-1.040s0.256-0.824 0.256-1.278zM32.608 21.591v-6.545c0-0.296-0.108-0.551-0.324-0.767s-0.472-0.324-0.767-0.324h-1.091v8.727h1.091c0.296 0 0.551-0.108 0.767-0.324s0.324-0.472 0.324-0.767z"></path>
</symbol>
<symbol id="icon-kasyno" viewBox="0 0 35 32">
<path fill="#fff" style="fill: var(--color1, #fff)" d="M6.4 16l3.2-6.4v-1.6h-4.8v1.6h3.2l-3.2 6.4zM12.8 16l3.2-6.4v-1.6h-4.8v1.6h3.2l-3.2 6.4zM19.2 16l3.2-6.4v-1.6h-4.8v1.6h3.2l-3.2 6.4zM32 0c-1.76 0-3.2 1.44-3.2 3.2 0 1.12 0.64 2.24 1.6 2.72v18.080h-4.8v-3.2c0.96 0 1.6-0.64 1.6-1.6v-14.4c0-0.96-0.64-1.6-1.6-1.6h-6.080c-1.28-1.92-3.52-3.2-5.92-3.2s-4.64 1.28-5.92 3.2h-6.080c-0.96 0-1.6 0.64-1.6 1.6v14.4c0 0.96 0.64 1.6 1.6 1.6v11.2h24v-4.8h4.8c1.76 0 3.2-1.44 3.2-3.2v-18.080c0.96-0.48 1.6-1.6 1.6-2.72 0-1.76-1.44-3.2-3.2-3.2zM3.2 6.4h20.8v11.2h-20.8v-11.2zM22.4 28.8h-17.6v-8h17.6v8zM19.2 27.2h-11.2v-3.2h11.2v3.2z"></path>
</symbol>
<symbol id="icon-masaz" viewBox="0 0 38 32">
<path fill="#fff" style="fill: var(--color1, #fff)" d="M35.873 28.287h-12.465v3.072h12.593c0.278 0.013 0.551-0.069 0.775-0.233s0.385-0.4 0.456-0.669v-0.745c0 0-0.009-1.425-1.359-1.425zM34.149 27.681c0.818-0.001 1.603-0.327 2.181-0.906s0.903-1.364 0.902-2.182c0-1.71-1.382-3.090-3.083-3.090-0.405 0.001-0.806 0.081-1.18 0.237s-0.713 0.384-0.999 0.67c-0.286 0.287-0.512 0.627-0.666 1.002s-0.233 0.776-0.232 1.181c0 1.704 1.379 3.089 3.077 3.089zM27.657 27.519c1.617 0 2.918-1.14 2.918-2.755-0.001-1.612-1.306-2.458-2.912-2.47l-4.255 0.539v4.686h4.249zM13.826 7.5c1.889 0 3.416-1.536 3.416-3.431s-1.528-3.43-3.416-3.43c-1.887 0-3.417 1.535-3.417 3.43s1.53 3.431 3.417 3.431zM10.337 18.602l-0.031-0.044-1.548-3.605-0.002 7.191h4.627l1.011-1.075-2.741-1.055c-0.65-0.244-1.111-0.797-1.316-1.411zM11.318 18.279c0.15 0.336 0.427 0.609 0.776 0.734l5.282 1.958c0.161 0.071 0.334 0.109 0.51 0.112s0.35-0.028 0.514-0.092c0.164-0.064 0.313-0.16 0.44-0.282s0.228-0.268 0.298-0.429c0.143-0.327 0.15-0.697 0.021-1.029s-0.384-0.6-0.71-0.746l-4.873-1.84-1.505-3.61 0.982-0.366 1.276 3.093 3.704 1.373v-3.78l1.966 1.17 0.98 4.937c0.056 0.167 0.145 0.321 0.262 0.454s0.258 0.24 0.416 0.318c0.158 0.077 0.331 0.123 0.507 0.133s0.352-0.014 0.519-0.072c0.335-0.119 0.61-0.366 0.764-0.686s0.176-0.689 0.061-1.026l-1.098-4.755c-0.072-0.263-0.223-0.498-0.432-0.674-0.563-0.624-3.41-3.807-3.613-4.020-0.297-0.298-0.977-0.836-2.261-0.836h-4.608c-2.619 0-3.123 2.673-2.587 4.032l2.41 5.927zM22.64 22.911h-20.761c-0.756 0-1.511 0.426-1.511 1.364v7.084h22.272v-8.448z"></path>
</symbol>
<symbol id="icon-mingcute_service-line" viewBox="0 0 33 32">
<path fill="#fff" style="fill: var(--color1, #fff)" d="M7 12c0-2.475 0.983-4.849 2.734-6.6s4.124-2.734 6.6-2.734c2.475 0 4.849 0.983 6.6 2.734s2.734 4.124 2.734 6.6v1.38c2.261 0.324 4 2.269 4 4.62v0.333c-0 0.578-0.116 1.15-0.341 1.683s-0.554 1.015-0.968 1.419c-0.414 0.404-0.905 0.72-1.443 0.931s-1.113 0.312-1.691 0.298c-0.987 2.827-3.496 4.732-6.204 5.215-0.627 0.229-1.368 0.121-2.020 0.121-0.53 0-1.039-0.211-1.414-0.586s-0.586-0.884-0.586-1.414c0-0.53 0.211-1.039 0.586-1.414s0.884-0.586 1.414-0.586h1.333c0.313-0 0.622 0.073 0.901 0.214s0.522 0.346 0.708 0.598c1.728-0.823 3.057-2.56 3.057-4.812v-8c0-1.768-0.702-3.464-1.953-4.714s-2.946-1.953-4.714-1.953-3.464 0.702-4.714 1.953c-1.25 1.25-1.953 2.946-1.953 4.714v8.333c0 0.619-0.246 1.212-0.683 1.65s-1.031 0.683-1.65 0.683c-1.149 0-2.251-0.457-3.064-1.269s-1.269-1.915-1.269-3.064v-0.333c-0-1.122 0.404-2.207 1.139-3.056s1.751-1.404 2.861-1.564v-1.38zM7 16.113c-0.39 0.138-0.728 0.393-0.967 0.731s-0.367 0.742-0.367 1.155v0.333c0 0.807 0.573 1.48 1.333 1.633v-3.853zM25.667 16.113v3.853c0.76-0.155 1.333-0.827 1.333-1.633v-0.333c0-0.414-0.128-0.817-0.367-1.155s-0.576-0.593-0.967-0.731z"></path>
</symbol>
<symbol id="icon-transform" viewBox="0 0 36 32">
<path fill="none" stroke="#fff" style="stroke: var(--color1, #fff)" stroke-linejoin="round" stroke-linecap="butt" stroke-miterlimit="4" stroke-width="3.2" d="M31.6 6.4h-17.6c-1.326 0-2.4 1.075-2.4 2.4v9.6c0 1.326 1.074 2.4 2.4 2.4h17.6c1.326 0 2.4-1.074 2.4-2.4v-9.6c0-1.325-1.074-2.4-2.4-2.4z"></path>
<path fill="none" stroke="#fff" style="stroke: var(--color1, #fff)" stroke-linejoin="miter" stroke-linecap="round" stroke-miterlimit="4" stroke-width="3.2" d="M18 11.2v4.8M27.6 11.2v4.8"></path>
<path fill="none" stroke="#fff" style="stroke: var(--color1, #fff)" stroke-linejoin="round" stroke-linecap="round" stroke-miterlimit="4" stroke-width="3.2" d="M27.6 6.4v-4.8h-9.6v4.8M34 25.6h-25.6c-0.424 0-0.831-0.169-1.131-0.469s-0.469-0.707-0.469-1.131v-18.4c0-0.424-0.169-0.831-0.469-1.131s-0.707-0.469-1.131-0.469h-3.2M14 30.4c-0.636 0-1.247-0.253-1.697-0.703s-0.703-1.061-0.703-1.697v-2.4h4.8v2.4c0 0.636-0.253 1.247-0.703 1.697s-1.061 0.703-1.697 0.703zM28.4 30.4c-0.636 0-1.247-0.253-1.697-0.703s-0.703-1.061-0.703-1.697v-2.4h4.8v2.4c0 0.636-0.253 1.247-0.703 1.697s-1.061 0.703-1.697 0.703z"></path>
</symbol>
</defs>
</svg>
